<svg width="244" height="38" viewBox="0 0 244 38" fill="none" xmlns="http://www.w3.org/2000/svg">
<path d="M68.514 27.55C65.3166 27.55 62.64 26.472 60.484 24.316C58.328 22.16 57.25 19.4687 57.25 16.242C57.25 13.074 58.328 10.4047 60.484 8.234C62.64 6.078 65.3166 5 68.514 5C71.726 5 74.4833 6.00467 76.786 8.014L73.794 11.292C72.254 10.0893 70.494 9.488 68.514 9.488C66.49 9.50267 64.8546 10.1407 63.608 11.402C62.376 12.6487 61.76 14.2473 61.76 16.198C61.76 18.2953 62.3833 19.96 63.63 21.192C64.8766 22.424 66.512 23.04 68.536 23.04C70.164 23.04 71.4106 22.7247 72.276 22.094V18.222L69.284 18.244V14.02H76.786V24.558C74.498 26.5527 71.7406 27.55 68.514 27.55ZM84.86 12.502V14.174C85.9453 13.074 87.258 12.524 88.798 12.524C89.282 12.524 89.744 12.5607 90.184 12.634L89.524 16.792C89.04 16.352 88.3433 16.1173 87.434 16.088C86.4073 16.1613 85.5493 16.902 84.86 18.31V27.55H80.658V12.964L84.86 12.502ZM99.754 27.704C97.5686 27.704 95.7426 26.9707 94.276 25.504C92.824 24.0373 92.098 22.2187 92.098 20.048C92.098 17.8627 92.824 16.0367 94.276 14.57C95.7426 13.1033 97.5686 12.37 99.754 12.37C101.939 12.37 103.765 13.1033 105.232 14.57C106.699 16.0367 107.432 17.8627 107.432 20.048C107.432 22.2333 106.699 24.052 105.232 25.504C103.765 26.9707 101.939 27.704 99.754 27.704ZM99.754 24.074C100.883 24.074 101.807 23.6853 102.526 22.908C103.245 22.1453 103.604 21.192 103.604 20.048C103.604 18.904 103.245 17.9507 102.526 17.188C101.807 16.4107 100.876 16.022 99.732 16.022C98.6026 16.022 97.6786 16.4107 96.96 17.188C96.256 17.9507 95.904 18.904 95.904 20.048C95.904 21.192 96.256 22.1453 96.96 22.908C97.6786 23.6853 98.61 24.074 99.754 24.074ZM119.356 22.226V12.502H123.558V27.55H119.356V26.186C118.344 27.0953 117.141 27.55 115.748 27.55C113.841 27.55 112.389 26.9707 111.392 25.812C110.38 24.6533 109.874 23.326 109.874 21.83V12.502H114.098V20.774C114.098 21.7713 114.347 22.5487 114.846 23.106C115.345 23.6633 116.1 23.9567 117.112 23.986C117.992 23.9273 118.74 23.3407 119.356 22.226ZM131.346 33.886L127.144 33.864V12.964L131.346 12.502V13.712C132.475 12.9053 133.583 12.502 134.668 12.502C136.971 12.502 138.797 13.2573 140.146 14.768C141.51 16.264 142.192 18.0167 142.192 20.026C142.192 22.0353 141.51 23.788 140.146 25.284C138.797 26.7947 136.971 27.55 134.668 27.55C133.157 27.4473 132.05 27.0367 131.346 26.318V33.886ZM131.346 18.662V21.104C131.551 22.7907 132.607 23.7807 134.514 24.074C136.919 23.8833 138.276 22.6367 138.584 20.334C138.481 17.518 137.125 16.0587 134.514 15.956C132.607 16.264 131.551 17.166 131.346 18.662ZM151.982 27.704C149.797 27.704 147.978 26.9707 146.526 25.504C145.059 24.0373 144.326 22.2187 144.326 20.048C144.326 17.8627 145.059 16.0367 146.526 14.57C147.978 13.1033 149.797 12.37 151.982 12.37C154.167 12.37 155.993 13.1033 157.46 14.57C158.927 16.0367 159.66 17.8627 159.66 20.048C159.66 22.2333 158.927 24.052 157.46 25.504C155.993 26.9707 154.167 27.704 151.982 27.704ZM151.982 24.074C153.126 24.074 154.05 23.6853 154.754 22.908C155.473 22.1453 155.832 21.192 155.832 20.048C155.832 18.904 155.473 17.9507 154.754 17.188C154.05 16.4107 153.119 16.022 151.96 16.022C150.831 16.022 149.907 16.4107 149.188 17.188C148.484 17.9507 148.132 18.904 148.132 20.048C148.132 21.192 148.484 22.1453 149.188 22.908C149.907 23.6853 150.838 24.074 151.982 24.074ZM166.678 17.936V27.55H162.454V12.964L166.678 12.502V13.844C167.617 12.964 168.819 12.524 170.286 12.524C172.178 12.524 173.63 13.096 174.642 14.24C175.742 13.096 177.392 12.524 179.592 12.524C181.499 12.524 182.958 13.096 183.97 14.24C184.967 15.3987 185.466 16.7333 185.466 18.244V27.55H181.264V19.278C181.264 18.2807 181.037 17.5033 180.582 16.946C180.127 16.4033 179.394 16.1173 178.382 16.088C177.546 16.1467 176.827 16.6967 176.226 17.738C176.167 18.046 176.138 18.3613 176.138 18.684V27.55H171.936V19.278C171.936 18.2807 171.709 17.5033 171.254 16.946C170.799 16.4033 170.066 16.1173 169.054 16.088C168.13 16.1467 167.338 16.7627 166.678 17.936ZM191.12 16.88L189.47 14.328C191.377 13.1253 193.584 12.524 196.092 12.524C197.896 12.524 199.319 13.0227 200.36 14.02C201.416 15.032 201.944 16.5353 201.944 18.53V27.55H197.742V26.362C196.51 27.154 195.403 27.55 194.42 27.55C192.425 27.55 190.922 27.1247 189.91 26.274C188.913 25.4233 188.414 24.25 188.414 22.754C188.414 21.346 188.891 20.092 189.844 18.992C190.783 17.892 192.308 17.342 194.42 17.342C195.403 17.342 196.51 17.6427 197.742 18.244V17.782C197.713 16.682 196.906 16.0807 195.322 15.978C193.518 15.978 192.117 16.2787 191.12 16.88ZM197.742 23.04V21.346C197.346 20.5687 196.393 20.18 194.882 20.18C193.078 20.3853 192.125 21.0893 192.022 22.292C192.125 23.48 193.078 24.1253 194.882 24.228C196.393 24.228 197.346 23.832 197.742 23.04ZM209.93 18.002V27.55H205.706V12.964L209.93 12.502V13.866C210.942 12.9713 212.145 12.524 213.538 12.524C215.445 12.524 216.897 13.096 217.894 14.24C218.891 15.3987 219.39 16.7333 219.39 18.244V27.55H215.188V19.278C215.188 18.2807 214.939 17.5033 214.44 16.946C213.927 16.4033 213.164 16.1173 212.152 16.088C211.287 16.1467 210.546 16.7847 209.93 18.002ZM227.134 27.55H222.932V12.502H227.134V27.55ZM222.778 8.916C222.778 9.51733 222.976 10.016 223.372 10.412C223.783 10.808 224.34 11.006 225.044 11.006C225.733 11.006 226.283 10.808 226.694 10.412C227.09 10.016 227.288 9.51733 227.288 8.916C227.288 8.31467 227.09 7.80867 226.694 7.398C226.283 6.98733 225.719 6.782 225 6.782C224.325 6.782 223.783 6.98733 223.372 7.398C222.976 7.80867 222.778 8.31467 222.778 8.916ZM232.744 16.88L231.094 14.328C233.001 13.1253 235.208 12.524 237.716 12.524C239.52 12.524 240.95 13.0227 242.006 14.02C243.047 15.032 243.568 16.5353 243.568 18.53V27.55H239.366V26.362C238.149 27.154 237.049 27.55 236.066 27.55C234.057 27.55 232.553 27.1247 231.556 26.274C230.544 25.4233 230.038 24.25 230.038 22.754C230.038 21.346 230.515 20.092 231.468 18.992C232.407 17.892 233.939 17.342 236.066 17.342C237.034 17.342 238.134 17.6427 239.366 18.244V17.782C239.351 16.682 238.552 16.0807 236.968 15.978C235.164 15.978 233.756 16.2787 232.744 16.88ZM239.366 23.04V21.346C238.97 20.5687 238.017 20.18 236.506 20.18C234.702 20.3853 233.749 21.0893 233.646 22.292C233.749 23.48 234.702 24.1253 236.506 24.228C238.017 24.228 238.97 23.832 239.366 23.04Z" fill="#FD2D01"/>
<path d="M18.625 34.1955C22.797 34.1955 26.7082 32.5937 29.651 29.651C32.5937 26.7082 34.1955 22.797 34.1955 18.625C34.1955 14.453 32.5937 10.5417 29.651 7.599C26.7082 4.65625 22.797 3.0545 18.625 3.0545C14.453 3.0545 10.5417 4.65625 7.599 7.599C4.65625 10.5417 3.0545 14.453 3.0545 18.625C3.0545 22.797 4.65625 26.7082 7.599 29.651C10.5417 32.5937 14.453 34.1955 18.625 34.1955ZM19.519 31.5507C19.221 31.588 18.923 31.588 18.625 31.588C18.2152 31.588 17.8055 31.5507 17.3957 31.5135C16.0547 29.4275 15.049 27.1925 14.453 24.8457H21.0462C21.2697 25.4045 21.6795 25.926 22.1637 26.2612C21.5305 28.1237 20.6365 29.8745 19.519 31.5507V31.5507ZM23.0577 30.8057C23.7655 29.502 24.3242 28.1982 24.7712 26.82C25.8515 26.5965 26.7082 25.8515 27.118 24.8457H29.9862C28.4962 27.565 26.0005 29.6882 23.0577 30.8057ZM31.5507 18.625C31.5507 19.8542 31.3645 21.0462 31.0665 22.201H27.0435C26.82 21.7167 26.4475 21.2697 26.0005 20.9345C26.075 20.115 26.1122 19.2955 26.1122 18.476C26.1122 17.3212 26.0377 16.1665 25.8887 15.049H31.0292C31.4017 16.1665 31.5507 17.3957 31.5507 18.625V18.625ZM29.9862 12.4042H25.4417C24.9575 10.3555 24.2497 8.4185 23.2812 6.55601C26.1122 7.63625 28.4962 9.7595 29.9862 12.4042ZM23.5047 18.476C23.5047 19.1092 23.4675 19.7425 23.4302 20.3757C22.3872 20.5992 21.5305 21.2697 21.1207 22.201H13.9315C13.7825 21.0835 13.6707 19.9287 13.6707 18.8112C13.6707 18.1035 13.708 17.3957 13.7825 16.688C14.751 16.5017 15.5332 15.8685 16.0175 15.049H23.2812C23.4302 16.1665 23.5047 17.3212 23.5047 18.476V18.476ZM17.6565 5.7365C17.9917 5.69925 18.327 5.69925 18.625 5.69925C18.9975 5.69925 19.37 5.69925 19.7425 5.7365C21.0835 7.8225 22.0892 10.0575 22.6852 12.4042H16.2037C15.9802 11.771 15.5705 11.2122 15.049 10.8025C15.7195 9.0145 16.5762 7.33825 17.6565 5.7365ZM14.1177 6.4815C13.4845 7.6735 12.9257 8.94 12.4787 10.2065C11.324 10.43 10.3927 11.2867 10.0202 12.367H7.301C8.75375 9.72225 11.175 7.599 14.1177 6.4815ZM5.69925 18.625C5.69925 17.3957 5.8855 16.1665 6.22075 15.049H10.281C10.5045 15.4587 10.8398 15.8312 11.2123 16.1292C11.1378 17.0232 11.0632 17.9172 11.0632 18.8112C11.0632 19.966 11.1378 21.0835 11.2868 22.201H6.22075C5.84825 21.0462 5.69925 19.8542 5.69925 18.625ZM11.7337 24.8085C12.218 26.82 12.9257 28.7942 13.8942 30.6567C11.0633 29.5392 8.7165 27.4532 7.26375 24.8085H11.7337Z" fill="#FFD7D7"/>
</svg>
